# AST/ASF file generated using VICON BodyLanguage
# -----------------------------------------------
:version 1.10
:name VICON
:units
  mass 1.0
  length 0.45
  angle deg
:documentation
   .ast/.asf automatically generated from VICON data using
   VICON BodyBuilder and BodyLanguage model FoxedUp or BRILLIANT.MOD
:root
   order TX TY TZ RX RY RZ
   axis XYZ
   position 0 0 0  
   orientation 0 0 0 
:bonedata
  begin
     id 1 
     name lhipjoint
     direction 0.78388 -0.462562 0.414208 
     length 3.01181 
     axis 0 0 0  XYZ
  end
  begin
     id 2 
     name lfemur
     direction 0.34202 -0.939693 0  
     length 6.04673  
     axis 0 0 20  XYZ
    dof rx ry rz
    limits (-160.0 20.0)
           (-70.0 70.0)
           (-60.0 70.0)
  end
  begin
     id 3 
     name ltibia
     direction 0.34202 -0.939693 0   
     length 7.211   
     axis 0 0 20   XYZ
    dof rx
    limits (-10.0 170.0)
  end
  begin
     id 4 
     name lfoot
     direction 0.121887 -0.334882 0.934344   
     length 2.13567   
     axis -90 7.62852e-016 20   XYZ
    dof rx rz
    limits (-45.0 90.0)
           (-70.0 20.0)
  end
  begin
     id 5 
     name ltoes
     direction 1.53555e-011 -4.2179e-011 1   
     length 1.05957   
     axis -90 7.62852e-016 20   XYZ
    dof rx
    limits (-90.0 20.0)
  end
  begin
     id 6 
     name rhipjoint
     direction -0.769387 -0.475875 0.426129   
     length 2.92756  
     axis 0 0 0  XYZ 
  end
  begin
     id 7 
     name rfemur
     direction -0.34202 -0.939693 0   
     length 6.35468   
     axis 0 0 -20   XYZ
    dof rx ry rz
    limits (-160.0 20.0)
           (-70.0 70.0)
           (-70.0 60.0)
  end
  begin
     id 8 
     name rtibia
     direction -0.34202 -0.939693 0   
     length 7.37886   
     axis 0 0 -20   XYZ
    dof rx
    limits (-10.0 170.0)
 end
 begin
     id 9 
     name rfoot
     direction -0.101763 -0.279592 0.954711   
     length 2.21478  
     axis -90 -7.62852e-016 -20   XYZ
    dof rx rz
    limits (-45.0 90.0)
           (-20.0 70.0)
  end
  begin
     id 10 
     name rtoes
     direction -1.53494e-011 -4.21851e-011 1   
     length 1.10506   
     axis -90 -7.62852e-016 -20   XYZ
    dof rx
    limits (-90.0 20.0)
  end
  begin
     id 11 
     name lowerback
     direction 0.00747405 0.999267 0.0375481   
     length 2.13259   
     axis 0 0 0   XYZ
    dof rx ry rz
    limits (-20.0 45.0)
           (-30.0 30.0)
           (-30.0 30.0)
  end
  begin
     id 12 
     name upperback
     direction 0.00661626 0.996177 0.0871029   
     length 2.10528   
     axis 0 0 0   XYZ
    dof rx ry rz
    limits (-20.0 45.0)
           (-30.0 30.0)
           (-30.0 30.0)
  end
  begin
     id 13 
     name thorax
     direction 0.00320659 0.997679 0.0680167   
     length 2.11338   
     axis 0 0 0   XYZ
    dof rx ry rz
    limits (-20.0 45.0)
           (-30.0 30.0)
           (-30.0 30.0)
  end
  begin
     id 14 
     name lowerneck
     direction 0.0374841 0.973033 0.227602   
     length 1.42765   
     axis 0 0 0   XYZ
    dof rx ry rz
    limits (-20.0 45.0)
           (-30.0 30.0)
           (-30.0 30.0)
  end
  begin
     id 15 
     name upperneck
     direction 0.00481585 0.989155 -0.146795   
     length 1.47593   
     axis 0 0 0   XYZ
    dof rx ry rz
    limits (-20.0 45.0)
           (-30.0 30.0)
           (-30.0 30.0)
  end
  begin
     id 16
     name head
     direction -0.00292522 0.997206 -0.0746423  
     length 1.48116  
     axis 0 0 0   XYZ
    dof rx ry rz
    limits (-20.0 45.0)
           (-30.0 30.0)
           (-30.0 30.0)
  end
  begin
     id 17 
     name lclavicle
     direction 0.951444 0.305606 0.0368784  
     length 3.01855  
     axis 0 0 0   XYZ
    dof ry rz
    limits (-20.0 10.0)
           (0.0 20.0)
  end
  begin
     id 18 
     name lhumerus
     direction 1 -4.48977e-011 2.61664e-027   
     length 5.52731   
     axis 180 -30 -90   XYZ
    dof rx ry rz
    limits (-60.0 90.0)
           (-90.0 90.0)
           (-90.0 90.0)
  end
  begin
     id 19
     name lradius
     direction 1 -4.48944e-011 8.22157e-027   
     length 3.11059   
     axis 180 -30 -90   XYZ
    dof rx
    limits (-10.0 170.0)
  end
  begin
     id 20
     name lwrist
     direction 1 -4.48976e-011 1.5779e-026   
     length 1.5553   
     axis -1.15221e-014 90 90   XYZ
    dof ry
    limits (-180.0 0.0)
 end
  begin
     id 21 
     name lhand
     direction 1 -4.49025e-011 3.1558e-026   
     length 0.419626   
     axis -2.01367e-014 90 90   XYZ
    dof rx rz
    limits (-90.0 90.0)
           (-45.0 45.0)
  end
  begin
     id 22 
     name lfingers
     direction 1 -4.4904e-011 6.31161e-026   
     length 0.338313   
     axis -4.02734e-014 90 90   XYZ
    dof rx
    limits (0.0 90.0)
  end
  begin
     id 23
     name lthumb
     direction 0.707107 -6.35004e-011 0.707107   
     length 0.485752   
     axis -90 45 2.85299e-015   XYZ
    dof rx rz
    limits (-45.0 45.0)
           (-45.0 45.0)
  end
  begin
     id 24 
     name rclavicle
     direction -0.968876 0.223791 0.105816   
     length 3.04177  
     axis 0 0 0   XYZ 
    dof ry rz
    limits (-10.0 20.0)
           (-20.0 0.0)
  end
  begin
     id 25 
     name rhumerus
     direction -1 -4.48962e-011 -1.01384e-027  
     length 5.25396   
     axis 180 30 90   XYZ
    dof rx ry rz
    limits (-90.0 60.0)
           (-90.0 90.0)
           (-90.0 90.0)
  end
  begin
     id 26 
     name rradius
     direction -1 -4.48955e-011 8.88542e-027   
     length 3.10567   
     axis 180 30 90   XYZ
    dof rx
    limits (-10.0 170.0)
  end
  begin
     id 27 
     name rwrist
     direction -1 -4.48994e-011 1.5779e-026   
     length 1.55283   
     axis -1.15221e-014 -90 -90   XYZ
    dof ry
    limits (-180.0 0.0)
  end
  begin
     id 28
     name rhand
     direction -1 -4.48891e-011 3.1558e-026   
     length 0.498676   
     axis -2.01367e-014 -90 -90   XYZ
    dof rx rz
    limits (-90.0 90.0)
           (-45.0 45.0)
  end
  begin
     id 29
     name rfingers
     direction -1 -4.48972e-011 6.31161e-026   
     length 0.402045   
     axis -4.02734e-014 -90 -90   XYZ
    dof rx
    limits (0.0 90.0)
  end
  begin
     id 30
     name rthumb
     direction -0.707107 -6.34849e-011 0.707107   
     length 0.577259   
     axis -90 -45 -2.85299e-015   XYZ
    dof rx rz
    limits (-45.0 45.0)
           (-45.0 45.0)
  end
:hierarchy
  begin
    root lhipjoint rhipjoint lowerback
    lhipjoint lfemur
    lfemur ltibia
    ltibia lfoot
    lfoot ltoes
    rhipjoint rfemur
    rfemur rtibia
    rtibia rfoot
    rfoot rtoes
    lowerback upperback
    upperback thorax
    thorax lowerneck lclavicle rclavicle
    lowerneck upperneck
    upperneck head
    lclavicle lhumerus
    lhumerus lradius
    lradius lwrist
    lwrist lhand lthumb
    lhand lfingers
    rclavicle rhumerus
    rhumerus rradius
    rradius rwrist
    rwrist rhand rthumb
    rhand rfingers
  end

#!OML:ASF H:\Pregnant\Project 1\Capture day 1\Session 1\femalepreg.ASF
:FULLY-SPECIFIED
:DEGREES
1
root 7.4752 0.727204 26.5979 79.3989 -38.8672 174.604
lowerback 20.3692 0.497117 10.7407
upperback 1.1554 2.72919 -2.45008
thorax -9.52823 0.705669 -9.66977
lowerneck -12.0241 20.3284 21.4322
upperneck 19.5731 29.8451 -21.501
head 15.7285 11.7503 -5.60047
rclavicle 2.38542e-015 3.26007e-014
rhumerus -45.9116 5.65706 -71.4422
rradius 21.4014
rwrist 11.4813
rhand -4.64653 -9.60965
rfingers 7.12502
rthumb 21.133 -38.4779
lclavicle 2.38542e-015 3.26007e-014
lhumerus -65.4464 -55.7704 103.627
lradius 36.7252
lwrist 52.5781
lhand -1.66996 24.6424
lfingers 7.12502
lthumb 23.9899 53.1634
rfemur -66.4344 -15.9211 -3.29625
rtibia 143.987
rfoot 22.5112 19.7636
rtoes 42.2309
lfemur 20.7574 -13.173 -16.3054
ltibia 3.81667e-014
lfoot 32.1315 -18.0274
ltoes 2.63505
2
root 7.47625 0.725773 26.6068 79.2644 -38.7545 174.68
lowerback 20.4319 0.450012 10.842
upperback 1.20333 2.70342 -2.36102
thorax -9.51468 0.693869 -9.6215
lowerneck -12.063 20.3534 21.2886
upperneck 19.5468 29.8997 -21.5226
head 15.717 11.7521 -5.5714
rclavicle -1.19271e-014 3.68249e-014
rhumerus -45.8101 5.72714 -71.3443
rradius 21.3565
rwrist 11.4559
rhand -4.64846 -9.6301
rfingers 7.12502
rthumb 21.1311 -38.4986
lclavicle -1.19271e-014 3.68249e-014
lhumerus -65.3117 -55.7175 103.647
lradius 36.7018
lwrist 52.5855
lhand -1.58549 24.6997
lfingers 7.12502
lthumb 24.0709 53.21
rfemur -66.1764 -17.0762 -4.09823
rtibia 144.462
rfoot 22.0538 20.6998
rtoes 41.8295
lfemur 20.8271 -13.2537 -16.2376
ltibia -8.74653e-015
lfoot 32.0377 -17.9315
ltoes 2.73136
3
root 7.47828 0.725322 26.6157 79.1331 -38.6397 174.77
lowerback 20.4606 0.416123 11.0299
upperback 1.26608 2.69976 -2.35825
thorax -9.45132 0.690279 -9.72606
lowerneck -12.1909 20.3611 21.2856
upperneck 19.548 29.8992 -21.5571
head 15.7526 11.7386 -5.57385
rclavicle -1.90833e-014 1.06275e-013
rhumerus -45.7678 5.59999 -71.3183
rradius 21.3499
rwrist 11.4818
rhand -4.68323 -9.66843
rfingers 7.12502
rthumb 21.0977 -38.5406
lclavicle -1.90833e-014 1.06275e-013
lhumerus -65.3578 -55.9198 103.746
lradius 36.7465
lwrist 52.6875
lhand -1.69235 24.6635
lfingers 7.12502
lthumb 23.9684 53.1873
rfemur -65.8111 -18.2435 -4.93017
rtibia 144.847
rfoot 21.6706 21.5854
rtoes 41.5265
lfemur 20.8886 -13.3473 -16.1604
ltibia 2.46493e-014
lfoot 31.9458 -17.8718
ltoes 2.64602
4
root 7.47845 0.724263 26.621 78.9606 -38.5651 174.886
lowerback 20.5335 0.36977 11.1355
upperback 1.30688 2.67016 -2.32991
thorax -9.4489 0.673241 -9.75017
lowerneck -12.1503 20.3627 21.2791
upperneck 19.4607 29.9091 -21.6471
head 15.7296 11.739 -5.60583
rclavicle -6.36111e-015 -8.24459e-014
rhumerus -45.7603 5.55026 -71.2522
rradius 21.3571
rwrist 11.5236
rhand -4.68921 -9.6621
rfingers 7.12502
rthumb 21.092 -38.5349
lclavicle -6.36111e-015 -8.24459e-014
lhumerus -65.3158 -55.9738 103.76
lradius 36.756
lwrist 52.6139
lhand -1.53035 24.7039
lfingers 7.12502
lthumb 24.1238 53.2072
rfemur -65.1215 -19.1041 -5.66436
rtibia 144.986
rfoot 21.254 22.3156
rtoes 41.4132
lfemur 20.9648 -13.4533 -16.1381
ltibia -2.3059e-014
lfoot 31.9547 -17.8166
ltoes 2.89993
5
root 7.47897 0.723385 26.6273 78.8069 -38.4755 174.985
lowerback 20.5923 0.328679 11.2595
upperback 1.35417 2.65007 -2.29921
thorax -9.42828 0.661719 -9.78349
lowerneck -12.1653 20.37 21.2585
upperneck 19.4059 29.9234 -21.7129
head 15.7251 11.7365 -5.62167
rclavicle -2.62396e-014 3.16316e-014
rhumerus -45.7316 5.5014 -71.1946
rradius 21.3518
rwrist 11.5466
rhand -4.704 -9.67225
rfingers 7.12502
rthumb 21.0778 -38.5467
lclavicle -2.62396e-014 3.16316e-014
lhumerus -65.2933 -56.056 103.808
lradius 36.7721
lwrist 52.6046
lhand -1.4604 24.719
lfingers 7.12502
lthumb 24.1909 53.2133
rfemur -64.5202 -20.0871 -6.49688
rtibia 145.21
rfoot 20.8155 23.138
rtoes 41.1886
lfemur 21.0372 -13.5503 -16.0951
ltibia -2.38542e-014
lfoot 31.9279 -17.7539
ltoes 3.05815
6
root 7.47916 0.722596 26.6329 78.6508 -38.3916 175.085
lowerback 20.6536 0.28925 11.376
upperback 1.39961 2.63074 -2.26993
thorax -9.41117 0.650506 -9.81452
lowerneck -12.1667 20.3766 21.2499
upperneck 19.3442 29.9367 -21.7846
head 15.7182 11.7357 -5.64232
rclavicle -1.35174e-014 7.49418e-014
rhumerus -45.7115 5.45422 -71.1385
rradius 21.3489
rwrist 11.5693
rhand -4.71925 -9.67928
rfingers 7.12502
rthumb 21.0631 -38.5553
lclavicle -1.35174e-014 7.49418e-014
lhumerus -65.2836 -56.1416 103.865
lradius 36.7908
lwrist 52.5913
lhand -1.38519 24.729
lfingers 7.12502
lthumb 24.263 53.2138
rfemur -63.835 -20.9931 -7.33278
rtibia 145.373
rfoot 20.3553 23.9351
rtoes 40.9677
lfemur 21.1123 -13.647 -16.0581
ltibia -1.35174e-014
lfoot 31.9185 -17.6928
ltoes 3.26234
7
root 7.47895 0.721882 26.6376 78.493 -38.313 175.183
lowerback 20.7188 0.251495 11.4806
upperback 1.44278 2.61191 -2.23721
thorax -9.39935 0.639661 -9.835
lowerneck -12.1535 20.384 21.2446
upperneck 19.2777 29.9522 -21.8576
head 15.7077 11.7372 -5.66422
rclavicle -5.00937e-014 -9.36276e-014
rhumerus -45.6959 5.42054 -71.0813
rradius 21.3451
rwrist 11.5866
rhand -4.73376 -9.68325
rfingers 7.12502
rthumb 21.0492 -38.5609
lclavicle -5.00937e-014 -9.36276e-014
lhumerus -65.2827 -56.2205 103.934
lradius 36.8097
lwrist 52.5787
lhand -1.30594 24.7367
lfingers 7.12502
lthumb 24.3389 53.2113
rfemur -63.0692 -21.8078 -8.16414
rtibia 145.478
rfoot 19.8517 24.7118
rtoes 40.7295
lfemur 21.1915 -13.7416 -16.0268
ltibia 2.22639e-014
lfoot 31.9258 -17.63
ltoes 3.52168
